<svg xmlns="http://www.w3.org/2000/svg">
    <symbol id="close" viewBox="0 0 10 9" fill="none">
        <path d="M1.8253 0.937563C1.61274 0.724995 1.26718 0.724995 1.05461 0.937563C0.841497 1.15068 0.841497 1.49569 1.05461 1.70826L4.20226 4.85591L1.05461 8.00355C0.841497 8.21612 0.841497 8.56114 1.05461 8.77425C1.26772 8.98682 1.61274 8.98682 1.8253 8.77425L4.97295 5.6266L8.1206 8.77425C8.33317 8.98682 8.67818 8.98682 8.8913 8.77425C9.10386 8.56114 9.10386 8.21612 8.8913 8.00355L5.74365 4.85591L8.8913 1.70826C9.10386 1.49569 9.10386 1.15068 8.8913 0.937563C8.67818 0.724995 8.33317 0.724995 8.1206 0.937563L4.97295 4.08521L1.8253 0.937563Z" fill="currentColor"/>
    </symbol>

    <symbol viewBox="0 0 10 8" fill="none">
        <path d="M3.21222 5.81037L1.03209 3.63019L0.261292 4.40089L3.21222 7.35176L9.20772 1.35627L8.43686 0.585571L3.21222 5.81037Z" fill="#1F8B24"/>
    </symbol>

    <symbol id="success" viewBox="0 0 10 8" fill="none">
        <path d="M3.21222 5.81037L1.03209 3.63019L0.261292 4.40089L3.21222 7.35176L9.20772 1.35627L8.43686 0.585571L3.21222 5.81037Z" fill="#1F8B24"/>
    </symbol>

    <symbol id="danger" viewBox="0 0 7 11" fill="none">
        <path d="M1.98651 10.6825L6.6194 6.04957L4.16669 4.41444L5.25678 0.326599L0.623901 4.95948L3.0766 6.59462L1.98651 10.6825Z" fill="#DA100B"/>
    </symbol>

    <symbol id="warning" viewBox="0 0 12 12" fill="none">
        <path d="M5.07666 5.62369C5.07666 5.32282 5.32068 5.07864 5.62171 5.07864C5.92273 5.07864 6.16675 5.32282 6.16675 5.62369V8.89396C6.16675 9.19537 5.92273 9.439 5.62171 9.439C5.32068 9.439 5.07666 9.19537 5.07666 8.89396V5.62369Z" fill="#BF710F"/>
        <path d="M5.62171 2.93771C5.32068 2.93771 5.07666 3.18189 5.07666 3.48276C5.07666 3.78362 5.32068 4.0278 5.62171 4.0278C5.92273 4.0278 6.16675 3.78362 6.16675 3.48276C6.16675 3.18189 5.92273 2.93771 5.62171 2.93771Z" fill="#BF710F"/>
        <path fill-rule="evenodd" clip-rule="evenodd" d="M5.62165 0.729736C2.61148 0.729736 0.171204 3.1699 0.171204 6.18019C0.171204 9.19047 2.61148 11.6306 5.62165 11.6306C8.63183 11.6306 11.0721 9.19047 11.0721 6.18019C11.0721 3.1699 8.63183 0.729736 5.62165 0.729736ZM1.26129 6.18019C1.26129 8.5882 3.21348 10.5405 5.62165 10.5405C8.02983 10.5405 9.98201 8.5882 9.98201 6.18019C9.98201 3.77218 8.02983 1.81983 5.62165 1.81983C3.21348 1.81983 1.26129 3.77218 1.26129 6.18019Z" fill="#BF710F"/>
    </symbol>

    <symbol id="plus" viewBox="0 0 12 12" fill="none" >
        <path fill="currentColor" d="M7 7V11C7 11.5523 6.55228 12 6 12C5.44772 12 5 11.5523 5 11V7H1C0.447715 7 0 6.55228 0 6C0 5.44772 0.447715 5 1 5H5V1C5 0.447715 5.44772 0 6 0C6.55228 0 7 0.447715 7 1V5H11C11.5523 5 12 5.44772 12 6C12 6.55228 11.5523 7 11 7H7Z"/>
    </symbol>
</svg>
